<?xml version="1.0" encoding="utf-8"?>
<!-- Generator: Adobe Illustrator 22.0.0, SVG Export Plug-In . SVG Version: 6.00 Build 0)  -->
<svg version="1.1" id="Layer_1" xmlns="http://www.w3.org/2000/svg" xmlns:xlink="http://www.w3.org/1999/xlink" x="0px" y="0px"
	 viewBox="0 0 19.1 24.2" style="enable-background:new 0 0 19.1 24.2;" xml:space="preserve">
<style type="text/css">
	.st0{fill:none;stroke:#F5C946;stroke-width:1.5;stroke-linecap:round;stroke-miterlimit:10;}
</style>
<title>Asset 5</title>
<g id="Layer_2_1_">
	<g id="Layer_1-2">
		<path class="st0" d="M7,18.1l-4.7,5.2c-0.5,0.3-1.1,0.2-1.4-0.2c-0.1-0.2-0.2-0.5-0.2-0.7V5.5c0-0.7,0.6-1.2,1.2-1.2c0,0,0,0,0,0
			h11c0.7,0,1.2,0.5,1.3,1.2c0,0,0,0,0,0v16.8c0.1,0.5-0.3,1-0.9,1.1c-0.2,0-0.5,0-0.7-0.2L8,18.1C7.7,17.9,7.3,17.9,7,18.1z"/>
		<path class="st0" d="M4.9,4.3V2c0-0.7,0.6-1.3,1.2-1.3c0,0,0,0,0,0h11c0.7,0,1.2,0.6,1.2,1.2v16.8c0.1,0.5-0.3,1-0.9,1.1
			c-0.2,0-0.5,0-0.7-0.2l-2.6-2.8c0,0,0-10.3,0-11.5S13,4.3,13,4.3H4.9z"/>
	</g>
</g>
</svg>
