<svg xmlns="http://www.w3.org/2000/svg" viewBox="0 0 25 25"><defs><style>.cls-1{fill:#f5c946;}.cls-2{fill:#1a1a1a;}</style></defs><title>Asset 12</title><g id="Layer_2" data-name="Layer 2"><g id="Layer_1-2" data-name="Layer 1"><circle class="cls-1" cx="12.5" cy="12.5" r="12.5"/><path class="cls-2" d="M9.18,5.06a1.22,1.22,0,0,0-.81.84,3.28,3.28,0,0,0,0,.76v.62H7.88a2,2,0,0,0-.61,0,1.29,1.29,0,0,0-.84.86c0,.12,0,.65,0,5.46a53.25,53.25,0,0,0,.05,5.48A1.25,1.25,0,0,0,7.3,20c.12,0,.54,0,4.1,0s4,0,4.1,0a1.24,1.24,0,0,0,.85-.84,1.63,1.63,0,0,0,0-.62V18H17a2.42,2.42,0,0,0,.71,0,1.23,1.23,0,0,0,.86-.84,56.12,56.12,0,0,0,.05-5.64c0-4.95,0-5.5,0-5.62a1.28,1.28,0,0,0-.84-.85,34,34,0,0,0-4.27,0H9.34Zm8.37,1,.06.07V16.92l-.06.06-.07.07H16.4V12.69a38.33,38.33,0,0,0,0-4.54,1.26,1.26,0,0,0-.85-.84c-.12,0-.46,0-3.16,0h-3V6.7c0-.53,0-.57.06-.62A.25.25,0,0,1,9.47,6s1.84,0,4,0h4ZM15.34,8.34l.07.06V18.87l-.07.07-.06.07H7.52l-.07-.07-.06-.07V13.64c0-5.2,0-5.23,0-5.29l.1-.07s1.78,0,3.9,0h3.85Z"/></g></g></svg>