<?xml version="1.0" encoding="utf-8"?>
<!-- Generator: Adobe Illustrator 22.0.0, SVG Export Plug-In . SVG Version: 6.00 Build 0)  -->
<svg version="1.1" id="Layer_1" xmlns="http://www.w3.org/2000/svg" xmlns:xlink="http://www.w3.org/1999/xlink" x="0px" y="0px"
	 viewBox="0 0 20 20" style="enable-background:new 0 0 20 20;" xml:space="preserve">
<style type="text/css">
	.st0{fill:#F5C846;}
</style>
<path id="_-e-148" class="st0" d="M19.2,11.4c0.5-0.6,0.7-1.3,0.7-2.1c0-0.5-0.1-0.9-0.3-1.3c-0.3-0.4-0.7-0.7-1.2-0.7h-2.5
	c1.4-2.5,1.7-4.3,1-5.5c-0.4-0.7-1.2-1.1-2-1.1c-0.2,0-0.4,0.2-0.5,0.4C14,2.7,13,4.2,11.7,5.2c-1.5,1.3-3.3,2.3-5.1,3
	C6.3,7.7,5.8,7.4,5.2,7.4H2.3C1.5,7.4,0.8,8,0.8,8.8v8.6c0,0.8,0.7,1.4,1.5,1.4h2.9c0.6,0,1.1-0.4,1.4-0.9c1.2,0.1,2.3,0.4,3.3,1
	c0.9,0.5,1.7,0.9,4.4,0.9c0.7,0,1.3-0.2,1.9-0.5c0.5-0.3,0.8-0.7,0.9-1.3c0.4-0.2,0.8-0.6,1-1c0.3-0.5,0.4-1.1,0.4-1.7
	c0-0.1,0-0.2,0-0.3c0.3-0.2,0.5-0.5,0.6-0.8c0.3-0.5,0.4-1.1,0.4-1.7C19.5,12.1,19.5,11.8,19.2,11.4L19.2,11.4L19.2,11.4L19.2,11.4z
	 M5.2,17.9H2.3c-0.3,0-0.5-0.2-0.5-0.5c0,0,0,0,0,0V8.8c0-0.3,0.2-0.5,0.5-0.5c0,0,0,0,0,0h2.9c0.3,0,0.5,0.2,0.5,0.5c0,0,0,0,0,0
	v8.6l0,0C5.7,17.6,5.5,17.9,5.2,17.9C5.2,17.9,5.2,17.9,5.2,17.9z M18.7,10.5c-0.1,0.2-0.2,0.3-0.4,0.4c-0.3,0-0.5,0.2-0.5,0.5
	s0.2,0.5,0.5,0.5c0.1,0,0.1,0,0.1,0.1c0.1,0.2,0.1,0.3,0.1,0.5c0,0.5-0.1,0.9-0.3,1.3c-0.1,0.2-0.2,0.4-0.5,0.5
	c-0.3,0-0.5,0.2-0.5,0.5c0,0.2,0.1,0.3,0.2,0.4c0,0.6-0.2,1.2-0.5,1.6c-0.1,0.2-0.2,0.3-0.4,0.3c-0.3,0-0.5,0.2-0.5,0.5c0,0,0,0,0,0
	c0,0.8-0.9,1.2-1.8,1.2c-2.4,0-3.1-0.4-3.9-0.8c-1.1-0.6-2.4-1-3.7-1.1V9.1c2.1-0.7,4-1.8,5.7-3.2c1.4-1.1,2.4-2.6,2.9-4.2
	C15.6,1.8,15.8,2,16,2.3c0.3,0.6,0.6,2-1.5,5.3c-0.1,0.1-0.1,0.3,0,0.5c0.1,0.2,0.2,0.2,0.4,0.2h3.4c0.2,0,0.3,0.1,0.4,0.2
	C18.9,8.8,19,9,19,9.3C19,9.7,18.9,10.1,18.7,10.5L18.7,10.5L18.7,10.5z"/>
</svg>
