<svg xmlns="http://www.w3.org/2000/svg" viewBox="0 0 65 65"><defs><style>.cls-1{fill:#f5c946;}.cls-2{fill:none;stroke:#1a1a1a;stroke-linecap:round;stroke-miterlimit:10;stroke-width:2px;}</style></defs><title>Asset 1</title><g id="Layer_2" data-name="Layer 2"><g id="Layer_1-2" data-name="Layer 1"><circle class="cls-1" cx="32.5" cy="32.5" r="32.5"/><path class="cls-2" d="M22.21,39V29.22A10.22,10.22,0,0,1,32.49,19.11h0A10.23,10.23,0,0,1,42.77,29.22V39"/><path class="cls-2" d="M29.57,39.76H43.21A3.26,3.26,0,0,1,46.5,43h0a3.26,3.26,0,0,1-3.29,3.24H21.79A3.26,3.26,0,0,1,18.5,43h0a3.26,3.26,0,0,1,3.29-3.23h1.65"/><line class="cls-2" x1="32.91" y1="15.47" x2="32.91" y2="18.71"/><path class="cls-2" d="M35.5,46.58a3,3,0,0,1-6,0"/></g></g></svg>