<svg xmlns="http://www.w3.org/2000/svg" xmlns:xlink="http://www.w3.org/1999/xlink" width="16" height="17" viewBox="0 0 16 17"><defs><path id="tbr4a" d="M78.459 1116.541a2.21 2.21 0 0 1-1.087-.287 2.099 2.099 0 0 1-1.093-1.845v-12.147a2.1 2.1 0 0 1 1.092-1.845 2.202 2.202 0 0 1 2.182.003l3.376 1.797c.348.196.494.532.293.872-.201.338-.822.487-1.17.29l-3.229-1.73a.729.729 0 0 0-.726-.002.696.696 0 0 0-.364.615v12.147c0 .37.254.553.364.615.11.062.4.185.726-.001l10.728-6.074a.694.694 0 0 0 .363-.614.694.694 0 0 0-.363-.614l-3.404-2.015c-.347-.197-.494-.534-.293-.873.201-.339.821-.489 1.17-.29l3.257 1.95a2.1 2.1 0 0 1 1.086 1.842c0 .768-.407 1.457-1.086 1.842l-10.728 6.074c-.342.194-.718.29-1.094.29z"/></defs><g><g transform="translate(-76 -1100)"><use fill="#f9c346" xlink:href="#tbr4a"/></g></g></svg>