<?xml version="1.0" encoding="utf-8"?>
<!-- Generator: Adobe Illustrator 22.0.0, SVG Export Plug-In . SVG Version: 6.00 Build 0)  -->
<svg version="1.1" id="Layer_1" xmlns="http://www.w3.org/2000/svg" xmlns:xlink="http://www.w3.org/1999/xlink" x="0px" y="0px"
	 viewBox="0 0 16 21" style="enable-background:new 0 0 16 21;" xml:space="preserve">
<style type="text/css">
	.st0{fill:#F5C846;}
</style>
<path id="_-e-загркзить" class="st0" d="M14.5,6.7h-4.1c-0.3,0-0.5,0.2-0.5,0.5c0,0.3,0.2,0.5,0.5,0.5c0,0,0,0,0,0h4.1
	C14.7,7.8,15,8,15,8.3v10.3c0,0.3-0.2,0.5-0.5,0.5h0H2.1c-0.3,0-0.5-0.2-0.5-0.5V8.3c0-0.3,0.2-0.5,0.5-0.5h4.1
	c0.3,0,0.5-0.2,0.5-0.5c0-0.3-0.2-0.5-0.5-0.5c0,0,0,0,0,0H2.1c-0.8,0-1.5,0.7-1.5,1.5v10.3c0,0.9,0.7,1.5,1.5,1.5h12.3
	c0.8,0,1.5-0.7,1.5-1.5V8.3C16,7.4,15.3,6.7,14.5,6.7z M5.6,4l2.2-2.2v11.6c0,0.3,0.3,0.5,0.5,0.5c0.3,0,0.5-0.2,0.5-0.5V1.8L11,4
	c0.2,0.2,0.5,0.2,0.7,0c0.2-0.2,0.2-0.5,0-0.7L8.7,0.2C8.5,0,8.1,0,7.9,0.2L4.9,3.3C4.6,3.5,4.6,3.8,4.8,4S5.3,4.2,5.6,4
	C5.6,4,5.6,4,5.6,4z"/>
</svg>
