<?xml version="1.0" encoding="utf-8"?>
<!-- Generator: Adobe Illustrator 22.0.0, SVG Export Plug-In . SVG Version: 6.00 Build 0)  -->
<svg version="1.1" id="Layer_1" xmlns="http://www.w3.org/2000/svg" xmlns:xlink="http://www.w3.org/1999/xlink" x="0px" y="0px"
	 viewBox="0 0 20.5 20.5" style="enable-background:new 0 0 20.5 20.5;" xml:space="preserve">
<style type="text/css">
	.st0{fill:#F5C846;stroke:#F5C846;stroke-width:0.5;stroke-miterlimit:10;}
</style>
<title>Asset 4</title>
<g id="Layer_2_1_">
	<g id="Layer_1-2">
		<path class="st0" d="M10.5,20.2C4.8,20.3,0.3,15.7,0.3,10c0,0,0,0,0,0c0-2.2,0.7-4.4,2.1-6.1C3,3,3.8,2.3,4.7,1.7
			C5.6,1,6.6,0.6,7.6,0.3c0.2-0.1,0.4,0,0.5,0.2C8.3,0.6,8.3,0.8,8.2,1c-0.6,1.2-1,2.5-0.9,3.8c0,4.7,3.8,8.5,8.5,8.5
			c1.3,0,2.6-0.3,3.8-0.9c0.2-0.1,0.5,0,0.7,0.2c0.1,0.1,0.1,0.2,0,0.4c-0.3,1-0.8,2-1.4,2.9c-0.6,0.9-1.3,1.7-2.2,2.3
			C14.9,19.5,12.7,20.3,10.5,20.2L10.5,20.2z M6.8,1.6C3.4,3,1.2,6.3,1.2,10c0,5.1,4.1,9.2,9.2,9.2c3.7,0,7-2.2,8.4-5.6
			c-1,0.4-2.1,0.6-3.1,0.6c-5.2,0-9.5-4.2-9.5-9.5c0,0,0,0,0,0C6.3,3.7,6.4,2.6,6.8,1.6z"/>
	</g>
</g>
</svg>
