<svg xmlns="http://www.w3.org/2000/svg" viewBox="0 0 12.7 17.71">
    <defs>
        <style>
        .cls-1 {
            fill: #fff;
            stroke: #fff;
            stroke-miterlimit: 10;
            stroke-width: 0.7px;
        }
        </style>
    </defs>
    <title>Asset 15</title>
    <g id="Layer_2" data-name="Layer 2">
        <g id="Layer_1-2" data-name="Layer 1">
            <path class="cls-1" d="M12.14,17.33a.34.34,0,0,0,.21-.32V.7a.34.34,0,0,0-.21-.32.34.34,0,0,0-.38.07L3.32,8.61a.33.33,0,0,0-.11.25.36.36,0,0,0,.11.25l8.44,8.15a.37.37,0,0,0,.24.1A.35.35,0,0,0,12.14,17.33Zm-.49-15.8V16.18L4.07,8.86Z" />
            <path class="cls-1" d="M.7,17.36A.35.35,0,0,1,.35,17V.7A.35.35,0,0,1,.7.35.35.35,0,0,1,1.05.7V17A.35.35,0,0,1,.7,17.36Z" />
        </g>
    </g>
</svg>