<svg xmlns="http://www.w3.org/2000/svg" viewBox="0 0 12.7 17.71">
    <defs>
        <style>
        .cls-1 {
            fill: #fff;
            stroke: #fff;
            stroke-miterlimit: 10;
            stroke-width: 0.7px;
        }
        </style>
    </defs>
    <title>Asset 14</title>
    <g id="Layer_2" data-name="Layer 2">
        <g id="Layer_1-2" data-name="Layer 1">
            <path class="cls-1" d="M.56,17.33A.34.34,0,0,1,.35,17V.7A.34.34,0,0,1,.56.38.34.34,0,0,1,.94.45L9.38,8.61a.33.33,0,0,1,.11.25.36.36,0,0,1-.11.25L.94,17.26a.37.37,0,0,1-.24.1A.35.35,0,0,1,.56,17.33Zm.49-15.8V16.18L8.63,8.86Z" />
            <path class="cls-1" d="M12,17.36a.35.35,0,0,0,.35-.35V.7a.35.35,0,0,0-.7,0V17A.35.35,0,0,0,12,17.36Z" />
        </g>
    </g>
</svg>