<svg xmlns="http://www.w3.org/2000/svg" viewBox="0 0 19.14 24.17">
    <defs>
        <style>
        .cls-1 {
            fill: none;
            stroke: #1a1a1a;
            stroke-linecap: round;
            stroke-miterlimit: 10;
            stroke-width: 1.5px;
        }
        </style>
    </defs>
    <title>Asset 5</title>
    <g id="Layer_2" data-name="Layer 2">
        <g id="Layer_1-2" data-name="Layer 1">
            <path class="cls-1" d="M7,18.1,2.32,23.28a1,1,0,0,1-1.57-.94V5.53A1.24,1.24,0,0,1,2,4.29H13a1.24,1.24,0,0,1,1.26,1.24V22.34a1,1,0,0,1-1.57.94L8,18.1A1,1,0,0,0,7,18.1Z" />
            <path class="cls-1" d="M4.88,4.29V2A1.25,1.25,0,0,1,6.14.75h11A1.25,1.25,0,0,1,18.39,2V18.8a1,1,0,0,1-1.57.94L14.26,16.9s0-10.31,0-11.51S13,4.29,13,4.29Z" />
        </g>
    </g>
</svg>