<svg xmlns="http://www.w3.org/2000/svg" width="20" height="20" viewBox="0 0 20 20">
  <metadata><?xpacket begin="﻿" id="W5M0MpCehiHzreSzNTczkc9d"?>
<x:xmpmeta xmlns:x="adobe:ns:meta/" x:xmptk="Adobe XMP Core 5.6-c140 79.160451, 2017/05/06-01:08:21        ">
   <rdf:RDF xmlns:rdf="http://www.w3.org/1999/02/22-rdf-syntax-ns#">
      <rdf:Description rdf:about=""/>
   </rdf:RDF>
</x:xmpmeta>
                                                                                                    
                                                                                                    
                                                                                                    
                                                                                                    
                                                                                                    
                                                                                                    
                                                                                                    
                                                                                                    
                                                                                                    
                                                                                                    
                                                                                                    
                                                                                                    
                                                                                                    
                                                                                                    
                                                                                                    
                                                                                                    
                                                                                                    
                                                                                                    
                                                                                                    
                                                                                                    
                           
<?xpacket end="w"?></metadata>
<defs>
    <style>
      .cls-1 {
        fill: #1a1a1a;
        fill-rule: evenodd;
      }
    </style>
  </defs>
  <path id="_-e-148" data-name="-e-148" class="cls-1" d="M19.25,11.374a3.24,3.24,0,0,0,.677-2.061A2.392,2.392,0,0,0,19.6,8.029a1.429,1.429,0,0,0-1.245-.672H15.809C17.2,4.883,17.547,3.02,16.851,1.813A2.339,2.339,0,0,0,14.858.675a0.482,0.482,0,0,0-.481.413,7.537,7.537,0,0,1-2.7,4.122A15.212,15.212,0,0,1,6.532,8.179a1.465,1.465,0,0,0-1.321-.821H2.29A1.449,1.449,0,0,0,.829,8.79v8.591A1.449,1.449,0,0,0,2.29,18.813H5.211a1.463,1.463,0,0,0,1.36-.909A8.171,8.171,0,0,1,9.9,18.88c0.872,0.456,1.694.888,4.387,0.888a3.434,3.434,0,0,0,1.86-.5,1.991,1.991,0,0,0,.9-1.282,2.031,2.031,0,0,0,1-1.042,4.113,4.113,0,0,0,.424-1.681A2.087,2.087,0,0,0,18.449,15a2.21,2.21,0,0,0,.649-0.812,4.049,4.049,0,0,0,.421-1.743,1.993,1.993,0,0,0-.228-1l-0.038-.062h0ZM5.209,17.857H2.288A0.482,0.482,0,0,1,1.8,17.38V8.789a0.482,0.482,0,0,1,.487-0.477H5.209a0.482,0.482,0,0,1,.487.477v8.59h0A0.482,0.482,0,0,1,5.209,17.857Zm13.479-7.375a0.64,0.64,0,0,1-.361.4,0.477,0.477,0,1,0,0,.955,0.11,0.11,0,0,1,.115.074,1.164,1.164,0,0,1,.1.533,3.111,3.111,0,0,1-.319,1.319,0.84,0.84,0,0,1-.474.519,0.483,0.483,0,0,0-.488.477,0.476,0.476,0,0,0,.226.4A3.022,3.022,0,0,1,17,16.8a0.616,0.616,0,0,1-.406.314,0.482,0.482,0,0,0-.487.477c0,0.84-.947,1.223-1.827,1.223-2.447,0-3.133-.359-3.927-0.775A9.127,9.127,0,0,0,6.67,16.954V9.139a16.194,16.194,0,0,0,5.66-3.22,8.945,8.945,0,0,0,2.916-4.225,1.312,1.312,0,0,1,.756.59c0.326,0.563.569,2-1.454,5.3a0.47,0.47,0,0,0-.006.481,0.49,0.49,0,0,0,.424.242h3.392a0.446,0.446,0,0,1,.419.223,1.494,1.494,0,0,1,.176.778,2.719,2.719,0,0,1-.264,1.169h0Z"/>
</svg>
