<?xml version="1.0" encoding="utf-8"?>
<!-- Generator: Adobe Illustrator 22.0.0, SVG Export Plug-In . SVG Version: 6.00 Build 0)  -->
<svg version="1.1" id="Layer_1" xmlns="http://www.w3.org/2000/svg" xmlns:xlink="http://www.w3.org/1999/xlink" x="0px" y="0px"
	 viewBox="0 0 16.7 26.4" style="enable-background:new 0 0 16.7 26.4;" xml:space="preserve">
<style type="text/css">
	.st0{fill:none;stroke:#1a1a1a;stroke-width:1.5;stroke-linecap:round;stroke-miterlimit:10;}
</style>
<title>Asset 7</title>
<g id="Layer_2_1_">
	<g id="Layer_1-2">
		<path class="st0" d="M8.3,19.6L8.3,19.6c-2.8,0-5-2.2-5-5V5.8c0-2.8,2.2-5,5-5l0,0c2.8,0,5,2.2,5,5v8.8
			C13.4,17.3,11.1,19.6,8.3,19.6C8.4,19.6,8.3,19.6,8.3,19.6z"/>
		<path class="st0" d="M15.9,15.1c0,4.2-3.4,7.6-7.6,7.6l0,0c-4.2,0-7.6-3.4-7.6-7.6"/>
		<line class="st0" x1="8.3" y1="19.6" x2="8.3" y2="25.6"/>
	</g>
</g>
</svg>
