<svg xmlns="http://www.w3.org/2000/svg" viewBox="0 0 20.5 20.5">
    <defs>
        <style>
        .cls-1 {
            fill: #1a1a1a;
            stroke: #1a1a1a;
            stroke-miterlimit: 10;
            stroke-width: 0.5px;
        }
        </style>
    </defs>
    <title>Asset 4</title>
    <g id="Layer_2" data-name="Layer 2">
        <g id="Layer_1-2" data-name="Layer 1">
            <path class="cls-1" d="M10.5,20.25A10.24,10.24,0,0,1,.25,10,9.91,9.91,0,0,1,2.34,3.86a10.15,10.15,0,0,1,2.33-2.2A10.58,10.58,0,0,1,7.61.27a.51.51,0,0,1,.53.16A.52.52,0,0,1,8.2,1a7.93,7.93,0,0,0-.95,3.77,8.51,8.51,0,0,0,8.5,8.5,8,8,0,0,0,3.77-.94.5.5,0,0,1,.71.58,10.58,10.58,0,0,1-1.39,2.94,10.15,10.15,0,0,1-2.2,2.33,9.91,9.91,0,0,1-6.14,2.09ZM6.82,1.61A9.1,9.1,0,0,0,1.25,10a9.26,9.26,0,0,0,9.25,9.25,9.1,9.1,0,0,0,8.39-5.57,8.94,8.94,0,0,1-3.14.57,9.49,9.49,0,0,1-9.5-9.5A8.94,8.94,0,0,1,6.82,1.61Z" />
        </g>
    </g>
</svg>