<svg xmlns="http://www.w3.org/2000/svg" width="16" height="21" viewBox="0 0 16 21">
  <metadata><?xpacket begin="﻿" id="W5M0MpCehiHzreSzNTczkc9d"?>
<x:xmpmeta xmlns:x="adobe:ns:meta/" x:xmptk="Adobe XMP Core 5.6-c140 79.160451, 2017/05/06-01:08:21        ">
   <rdf:RDF xmlns:rdf="http://www.w3.org/1999/02/22-rdf-syntax-ns#">
      <rdf:Description rdf:about=""/>
   </rdf:RDF>
</x:xmpmeta>
                                                                                                    
                                                                                                    
                                                                                                    
                                                                                                    
                                                                                                    
                                                                                                    
                                                                                                    
                                                                                                    
                                                                                                    
                                                                                                    
                                                                                                    
                                                                                                    
                                                                                                    
                                                                                                    
                                                                                                    
                                                                                                    
                                                                                                    
                                                                                                    
                                                                                                    
                                                                                                    
                           
<?xpacket end="w"?></metadata>
<defs>
    <style>
      .cls-1 {
        fill: #1a1a1a;
        fill-rule: evenodd;
      }
    </style>
  </defs>
  <path id="_-e-загркзить" data-name="-e-загркзить" class="cls-1" d="M14.461,6.732H10.353a0.513,0.513,0,1,0,0,1.026h4.108a0.513,0.513,0,0,1,.513.513V18.534a0.513,0.513,0,0,1-.513.513H2.137a0.514,0.514,0,0,1-.514-0.513V8.271a0.514,0.514,0,0,1,.514-0.513H6.245a0.513,0.513,0,1,0,0-1.026H2.137A1.542,1.542,0,0,0,.6,8.271V18.534a1.542,1.542,0,0,0,1.541,1.54H14.461A1.542,1.542,0,0,0,16,18.534V8.271A1.542,1.542,0,0,0,14.461,6.732ZM5.58,4.015l2.205-2.2V13.4a0.514,0.514,0,0,0,1.027,0V1.813l2.2,2.2a0.513,0.513,0,0,0,.726-0.725L8.661,0.211a0.514,0.514,0,0,0-.726,0L4.855,3.29A0.513,0.513,0,1,0,5.58,4.015Z"/>
</svg>
