<svg xmlns="http://www.w3.org/2000/svg" width="20" height="20" viewBox="0 0 20 20">
  <metadata><?xpacket begin="﻿" id="W5M0MpCehiHzreSzNTczkc9d"?>
<x:xmpmeta xmlns:x="adobe:ns:meta/" x:xmptk="Adobe XMP Core 5.6-c140 79.160451, 2017/05/06-01:08:21        ">
   <rdf:RDF xmlns:rdf="http://www.w3.org/1999/02/22-rdf-syntax-ns#">
      <rdf:Description rdf:about=""/>
   </rdf:RDF>
</x:xmpmeta>
                                                                                                    
                                                                                                    
                                                                                                    
                                                                                                    
                                                                                                    
                                                                                                    
                                                                                                    
                                                                                                    
                                                                                                    
                                                                                                    
                                                                                                    
                                                                                                    
                                                                                                    
                                                                                                    
                                                                                                    
                                                                                                    
                                                                                                    
                                                                                                    
                                                                                                    
                                                                                                    
                           
<?xpacket end="w"?></metadata>
<defs>
    <style>
      .cls-1 {
        fill: #1a1a1a;
        fill-rule: evenodd;
      }
    </style>
  </defs>
  <path id="_-e-148" data-name="-e-148" class="cls-1" d="M19.316,9.366a3.225,3.225,0,0,1,.674,2.051,2.38,2.38,0,0,1-.323,1.278,1.422,1.422,0,0,1-1.239.668H15.891c1.381,2.461,1.729,4.315,1.037,5.516a2.327,2.327,0,0,1-1.983,1.133,0.48,0.48,0,0,1-.479-0.411,7.5,7.5,0,0,0-2.683-4.1A15.137,15.137,0,0,0,6.66,12.546a1.458,1.458,0,0,1-1.315.817H2.439A1.441,1.441,0,0,1,.985,11.938V3.389A1.442,1.442,0,0,1,2.439,1.964H5.346a1.456,1.456,0,0,1,1.353.9A8.13,8.13,0,0,0,10.008,1.9c0.868-.454,1.685-0.883,4.365-0.883a3.418,3.418,0,0,1,1.851.5,1.981,1.981,0,0,1,.9,1.276,2.021,2.021,0,0,1,.992,1.037A4.092,4.092,0,0,1,18.535,5.5a2.068,2.068,0,0,1-.017.26,2.2,2.2,0,0,1,.646.808,4.028,4.028,0,0,1,.419,1.735,1.983,1.983,0,0,1-.227,1l-0.037.062h0ZM5.344,2.915H2.437a0.48,0.48,0,0,0-.485.475v8.549a0.48,0.48,0,0,0,.485.475H5.344a0.48,0.48,0,0,0,.484-0.475V3.391h0A0.48,0.48,0,0,0,5.344,2.915Zm13.413,7.339A0.637,0.637,0,0,0,18.4,9.86a0.475,0.475,0,1,1,0-.95,0.109,0.109,0,0,0,.115-0.074,1.158,1.158,0,0,0,.1-0.53,3.1,3.1,0,0,0-.318-1.313,0.835,0.835,0,0,0-.472-0.517A0.48,0.48,0,0,1,17.338,6a0.474,0.474,0,0,1,.224-0.4,3.007,3.007,0,0,0-.486-1.632,0.613,0.613,0,0,0-.4-0.313,0.479,0.479,0,0,1-.484-0.475c0-.836-0.942-1.217-1.818-1.217-2.435,0-3.118.357-3.907,0.771A9.084,9.084,0,0,1,6.8,3.813V11.59a16.113,16.113,0,0,1,5.632,3.2,8.9,8.9,0,0,1,2.9,4.2,1.306,1.306,0,0,0,.752-0.587c0.324-.56.566-1.991-1.447-5.279a0.467,0.467,0,0,1-.006-0.479,0.488,0.488,0,0,1,.422-0.241h3.376a0.444,0.444,0,0,0,.417-0.222,1.487,1.487,0,0,0,.175-0.774,2.705,2.705,0,0,0-.263-1.164h0Z"/>
</svg>
