<svg xmlns="http://www.w3.org/2000/svg" viewBox="0 0 65 65"><defs><style>.cls-1{fill:#f5c946;}.cls-2{fill:none;stroke:#1a1a1a;stroke-linecap:round;stroke-linejoin:round;stroke-width:2px;}</style></defs><title>Asset 17</title><g id="Layer_2" data-name="Layer 2"><g id="Layer_1-2" data-name="Layer 1"><circle class="cls-1" cx="32.5" cy="32.5" r="32.5"/><path class="cls-2" d="M19.86,33.56V47.31a1.19,1.19,0,0,0,1.2,1.19h5.75a.9.9,0,0,0,.9-.89V40.07a2,2,0,0,1,2-2h5.66a2,2,0,0,1,2,2v7.59a.85.85,0,0,0,.85.84H44a1.12,1.12,0,0,0,1.12-1.11V33.56"/><polyline class="cls-2" points="49.5 31.2 32.94 16.5 15.5 31.2"/></g></g></svg>