<svg xmlns="http://www.w3.org/2000/svg" viewBox="0 0 65 65"><defs><style>.cls-1{fill:#f5c946;}.cls-2{fill:none;stroke:#1a1a1a;stroke-linecap:round;stroke-miterlimit:10;stroke-width:2px;}</style></defs><title>Asset 18</title><g id="Layer_2" data-name="Layer 2"><g id="Layer_1-2" data-name="Layer 1"><circle class="cls-1" cx="32.5" cy="32.5" r="32.5"/><path class="cls-2" d="M28.68,41.36,21.81,49a1.54,1.54,0,0,1-2.31-1.39V22.83A1.84,1.84,0,0,1,21.35,21H37.56a1.84,1.84,0,0,1,1.86,1.83V47.61A1.55,1.55,0,0,1,37.1,49l-6.87-7.64A1.49,1.49,0,0,0,28.68,41.36Z"/><path class="cls-2" d="M25.58,21V17.61a1.84,1.84,0,0,1,1.86-1.83H43.65a1.84,1.84,0,0,1,1.85,1.83V42.4a1.54,1.54,0,0,1-2.31,1.38l-3.77-4.19s0-15.2,0-17S37.56,21,37.56,21Z"/></g></g></svg>