<svg xmlns="http://www.w3.org/2000/svg" viewBox="0 0 65 65"><defs><style>.cls-1{fill:#f5c946;}.cls-2{fill:#1a1a1a;}</style></defs><title>Asset 19</title><g id="Layer_2" data-name="Layer 2"><g id="Layer_1-2" data-name="Layer 1"><circle class="cls-1" cx="32.5" cy="32.5" r="32.5"/><path class="cls-2" d="M22.33,15.1c-.39.26-.41.36-.41,1.89v1.4l-1.79,0c-2.1,0-2.71.05-3.48.43-1.34.66-1.91,1.94-1.82,4.08a17.15,17.15,0,0,0,1.77,6.68,9.39,9.39,0,0,0,2,2.91,3.89,3.89,0,0,0,3,1.41c.48,0,.49,0,.53.16a12.46,12.46,0,0,0,1.64,4.14,11.49,11.49,0,0,0,7.19,5.19l.64.13,0,2.2v2.2l-3.47,0c-3.4,0-3.49,0-3.68.17a1.08,1.08,0,0,0,0,1.8c.19.15.23.15,8.33.17,7.64,0,8.14,0,8.37-.11a1.24,1.24,0,0,0,.6-.83,1.29,1.29,0,0,0-.48-1c-.19-.14-.29-.15-3.85-.17l-3.65,0V43.59l.33,0a11.45,11.45,0,0,0,2.38-.49,12.18,12.18,0,0,0,7.79-8.54l.18-.75.31-.12a6.72,6.72,0,0,0,2.56-2.18,18.32,18.32,0,0,0,2.74-7,12.81,12.81,0,0,0,0-3.51,3.54,3.54,0,0,0-.87-1.55c-.74-.78-1.61-1-3.47-1H44.57V17c0-1.25,0-1.35-.15-1.58a1.15,1.15,0,0,0-.44-.37c-.27-.12-.7-.13-10.85-.13H22.56ZM42.44,18c0,.5,0,1.06,0,1.25s0,3,0,6.17c0,6.18,0,7.26-.26,8.47a10,10,0,0,1-2.85,4.88A9,9,0,0,1,37,40.52a7,7,0,0,1-4,.84,1.3,1.3,0,0,0-.52,0,6.49,6.49,0,0,1-3.21-.85,10.2,10.2,0,0,1-5.08-7.11c-.09-.53-.1-1.75-.1-8.45V17.1h9.18l9.18,0ZM21.92,26.13v5.7l-.36,0A2.42,2.42,0,0,1,20.13,31c-1.59-1.59-3-5.19-3.14-8.07a3.9,3.9,0,0,1,.24-1.89,1.33,1.33,0,0,1,.43-.35c.3-.14.44-.15,2.27-.19l2-.05S21.92,23,21.92,26.13ZM47.14,20.6a1.1,1.1,0,0,1,.79.76,10.51,10.51,0,0,1,0,2.95,14.82,14.82,0,0,1-2.73,6.42c-.65.76-.59,1.25-.59-4.84V20.52l.4,0A11.08,11.08,0,0,1,47.14,20.6Z"/></g></g></svg>