<svg xmlns="http://www.w3.org/2000/svg" viewBox="0 0 65 65"><defs><style>.cls-1{fill:#f5c946;}.cls-2{fill:none;stroke:#1a1a1a;stroke-miterlimit:10;stroke-width:2px;}</style></defs><title>Asset 20</title><g id="Layer_2" data-name="Layer 2"><g id="Layer_1-2" data-name="Layer 1"><circle class="cls-1" cx="32.5" cy="32.5" r="32.5"/><path class="cls-2" d="M48,30.15a2.28,2.28,0,0,1,1.51,2.08v.54A2.28,2.28,0,0,1,48,34.85l-2.23.8a2.17,2.17,0,0,0-1.34,1.29c-.11.3-.22.59-.35.88a2.22,2.22,0,0,0,.06,1.85l1,2.09a2.25,2.25,0,0,1-.4,2.54c-.14.15-.28.29-.43.43a2.23,2.23,0,0,1-2.54.4l-2.09-1a2.22,2.22,0,0,0-1.85-.06c-.29.13-.58.24-.88.35a2.17,2.17,0,0,0-1.29,1.34L34.85,48a2.28,2.28,0,0,1-2.08,1.51h-.54A2.28,2.28,0,0,1,30.15,48l-.8-2.23a2.17,2.17,0,0,0-1.29-1.34c-.3-.11-.59-.22-.88-.35a2.22,2.22,0,0,0-1.85.06l-2.09,1a2.23,2.23,0,0,1-2.54-.4c-.15-.14-.29-.28-.43-.43a2.23,2.23,0,0,1-.4-2.54l1-2.09a2.22,2.22,0,0,0,.06-1.85c-.13-.29-.24-.58-.35-.88a2.17,2.17,0,0,0-1.34-1.29L17,34.85a2.27,2.27,0,0,1-1.51-2.08v-.54A2.27,2.27,0,0,1,17,30.15l2.23-.8a2.17,2.17,0,0,0,1.34-1.29c.11-.3.22-.59.35-.88a2.22,2.22,0,0,0-.06-1.85l-1-2.09a2.25,2.25,0,0,1,.4-2.54l.43-.43a2.23,2.23,0,0,1,2.54-.4l2.09,1a2.22,2.22,0,0,0,1.85.06c.29-.13.58-.24.88-.35a2.17,2.17,0,0,0,1.29-1.34l.8-2.23a2.28,2.28,0,0,1,2.08-1.51h.54A2.28,2.28,0,0,1,34.85,17l.8,2.23a2.17,2.17,0,0,0,1.29,1.34c.3.11.59.22.88.35a2.22,2.22,0,0,0,1.85-.06l2.09-1a2.25,2.25,0,0,1,2.54.4c.15.14.29.28.43.43a2.25,2.25,0,0,1,.4,2.54l-1,2.09a2.22,2.22,0,0,0-.06,1.85c.13.29.24.58.35.88a2.19,2.19,0,0,0,1.34,1.29ZM32.5,27.5A5,5,0,0,1,36,36a5,5,0,1,1-7-7A4.86,4.86,0,0,1,32.5,27.5Z"/></g></g></svg>