<svg xmlns="http://www.w3.org/2000/svg" viewBox="0 0 65 65"><defs><style>.cls-1{fill:#f5c946;}.cls-2{fill:#1a1a1a;}</style></defs><title>Asset 21</title><g id="Layer_2" data-name="Layer 2"><g id="Layer_1-2" data-name="Layer 1"><circle class="cls-1" cx="32.5" cy="32.5" r="32.5"/><path class="cls-2" d="M31.59,15a4.5,4.5,0,0,0-2.06,1.19,4.07,4.07,0,0,0-.05,6.14,4.07,4.07,0,0,0,3.6,1.31,4.73,4.73,0,0,0,3.78-3.78,4.1,4.1,0,0,0-1.31-3.6A4.13,4.13,0,0,0,31.59,15Zm1.93,2.29a2,2,0,0,1,1,1,3.14,3.14,0,0,1,0,2,2,2,0,0,1-1,1,3.11,3.11,0,0,1-2,0,2.07,2.07,0,0,1-1-1,3.08,3.08,0,0,1,0-2,2,2,0,0,1,1.37-1.14A3.53,3.53,0,0,1,33.52,17.3Z"/><path class="cls-2" d="M25.28,26a3.84,3.84,0,0,0-2.48,2.2,3.23,3.23,0,0,0,0,2,4.13,4.13,0,0,0,1.34,1.68c.8.54.93.57,2.55.6l1.43,0v11H26.85a12.38,12.38,0,0,0-1.57.07,3.54,3.54,0,0,0-2.66,3.47,3.65,3.65,0,0,0,2.29,2.87l.41.16H39.7l.42-.16a3.92,3.92,0,0,0,2.1-2.08,3.2,3.2,0,0,0,0-2,4,4,0,0,0-2.08-2.1c-.34-.15-.51-.16-1.8-.19l-1.44,0v-7l0-7-.15-.44a4.94,4.94,0,0,0-3-3c-.44-.15-.52-.16-4.34-.17C27.27,25.92,25.41,25.94,25.28,26Zm8,2.23a1.87,1.87,0,0,1,1.34,1.2c.07.19.1,2.09.12,7.94,0,7.62,0,7.69.18,7.87a2.06,2.06,0,0,0,.33.33c.18.14.3.15,2.27.18a7.4,7.4,0,0,1,2.29.15,1.26,1.26,0,0,1,.32,1.51.62.62,0,0,1-.39.41c-.27.13-.61.13-7.2.13s-6.93,0-7.2-.13a.62.62,0,0,1-.39-.41,1.27,1.27,0,0,1,.32-1.51,7.46,7.46,0,0,1,2.29-.15c2,0,2.09,0,2.27-.18a2.06,2.06,0,0,0,.33-.33c.14-.18.14-.23.14-7.2s0-7-.14-7.2a2.57,2.57,0,0,0-.33-.33c-.18-.13-.3-.14-2.27-.18-1.78,0-2.1,0-2.29-.15a1.26,1.26,0,0,1-.32-1.5.65.65,0,0,1,.39-.42c.26-.11.52-.13,3.93-.13A28.23,28.23,0,0,1,33.25,28.21Z"/></g></g></svg>