<svg xmlns="http://www.w3.org/2000/svg" viewBox="0 0 417.67 124.64"><defs><style>.cls-1{fill:#1a1a1a;}.cls-1,.cls-2{fill-rule:evenodd;}.cls-2{fill:#2b2a29;}.cls-3{fill:#ffc600;stroke:#ffc600;stroke-miterlimit:10;stroke-width:6px;}</style></defs><title>Asset 16</title><g id="Layer_2" data-name="Layer 2"><g id="Layer_1-2" data-name="Layer 1"><path class="cls-1" d="M321.31,36.25l-50.46,0,0,12.9,32.39.06c-1.92,4.54-7.41,8.38-11.65,10.4-16.2,7.72-41.4,3.11-46.12-13.42a19.51,19.51,0,0,1,3.33-17.23c7.11-9.29,21.79-12.24,33.43-9.69a27.76,27.76,0,0,1,11.24,5.25c1.06.87,2.2,2,3.06,2.59,2.72-.94,5.48-1.88,8.28-2.87,2.56-.92,6.27-1.73,8.31-3.07C297.67.11,250.6-1,233.76,23.77a31.44,31.44,0,0,0-2.12,30.41c7.49,15.78,29.18,25,53,21.36a51.08,51.08,0,0,0,26.3-11.61C318.73,57.51,321.9,46.77,321.31,36.25Z"/><path class="cls-1" d="M8.72,52.56C8.06,53.14.69,62,0,63.37c4.17,4,17,9,23.44,10.45A94.94,94.94,0,0,0,55,75.24c9-1.13,17.62-3.79,23.39-10.45s5.38-19.62-1.28-24.69-16.22-6.59-26.38-7.53c-7.28-.68-25.79.14-29.62-4.44S24.3,20.8,28,19.93c11.22-2.63,26.12-1.08,36.87,3.47,1.61.69,4.64,2.47,6,2.67l6.86-7.9c.93-1.15,1.55-1.4,2.22-2.88C76.29,14.11,71.72,9,54.74,6.61c-10-1.37-21.77-1.35-31.36.84C14.13,9.56,6.49,14.1,4,21.94.89,31.86,6.43,39.42,15.72,42.78c20.11,7.3,48.15.77,49.37,9.92C66.53,63.41,42.87,63.48,33.56,62a63.22,63.22,0,0,1-19.09-6.34C12.85,54.79,10.15,53.07,8.72,52.56Z"/><path class="cls-1" d="M417.37,7.35h-16.1c-.28,2.26-.09,37-.08,40.12,0,7-2.54,10.21-7.35,12.6-8.91,4.42-24.72,4.42-33.66.08a14.92,14.92,0,0,1-5.59-4.53c-1.86-2.61-1.9-4.64-1.9-8.15,0-3.2.24-37.92-.11-40.12H336.49c-.33,2.53-.09,22.73-.09,27.1,0,7.6-1.11,19.42,1.94,25.56,10.84,21.83,65.88,21.8,77.09.23,3.15-6.06,2.05-17.93,2.05-25.5C417.48,30.45,417.75,9.74,417.37,7.35Z"/><polygon class="cls-1" points="210.28 74.35 210.28 7.43 194.1 7.56 194.15 74.33 210.28 74.35"/><path class="cls-2" d="M49.1,112.12a4.37,4.37,0,0,1,1.82-3.63,7.64,7.64,0,0,1,4.75-1.4,7.29,7.29,0,0,1,4.6,1.42,4.57,4.57,0,0,1,1.88,3.63H59a2.39,2.39,0,0,0-1-1.78,3.92,3.92,0,0,0-2.36-.66,4,4,0,0,0-2.32.62,1.89,1.89,0,0,0-.87,1.61c0,1,.87,1.75,2.63,2.18l2.81.67a7.89,7.89,0,0,1,3.62,1.65,3.86,3.86,0,0,1,1.06,2.9,4.38,4.38,0,0,1-2,3.69,8.26,8.26,0,0,1-5,1.43,7.87,7.87,0,0,1-4.82-1.39,4.91,4.91,0,0,1-2.07-3.71H52a2.65,2.65,0,0,0,1.16,1.86,4.55,4.55,0,0,0,2.57.65,4.45,4.45,0,0,0,2.5-.61,1.88,1.88,0,0,0,.93-1.64,1.55,1.55,0,0,0-.55-1.27,4.87,4.87,0,0,0-1.9-.82l-3-.75c-3-.75-4.57-2.3-4.57-4.65Zm23.22-2.28a4.1,4.1,0,0,0-3,1.22,4.79,4.79,0,0,0-1.35,3.17h8.59A4.6,4.6,0,0,0,75.32,111a4,4,0,0,0-3-1.2Zm4.2,9.44h3.23A5.53,5.53,0,0,1,77.37,123a8.26,8.26,0,0,1-4.89,1.44,7.53,7.53,0,0,1-5.83-2.32,8.89,8.89,0,0,1-2.15-6.29,9.16,9.16,0,0,1,2.14-6.37,7.3,7.3,0,0,1,5.7-2.39,7.08,7.08,0,0,1,5.54,2.26,8.74,8.74,0,0,1,2,6.11v1.18h-12v.2a4.91,4.91,0,0,0,1.27,3.54,4.39,4.39,0,0,0,3.35,1.33,4.89,4.89,0,0,0,2.56-.65,3.12,3.12,0,0,0,1.42-1.77Zm12,2.44a4.66,4.66,0,0,0,3.14-1.08,3.47,3.47,0,0,0,1.27-2.76v-1.32l-4.12.27q-3.51.23-3.51,2.5a2.05,2.05,0,0,0,.87,1.74,3.83,3.83,0,0,0,2.35.65Zm-.91,2.7A6.11,6.11,0,0,1,83.48,123a4.59,4.59,0,0,1-1.59-3.64,4.13,4.13,0,0,1,1.67-3.48,8.76,8.76,0,0,1,4.81-1.47l4.57-.27v-1.31a2.72,2.72,0,0,0-.93-2.22,4.66,4.66,0,0,0-4.94-.12,2.69,2.69,0,0,0-1.16,1.76H82.74a4.77,4.77,0,0,1,2-3.73,7.48,7.48,0,0,1,4.75-1.48,7.57,7.57,0,0,1,5,1.51,4.94,4.94,0,0,1,1.85,4v11.63H93.05v-2.82H93a5.13,5.13,0,0,1-2.15,2.18,6.45,6.45,0,0,1-3.2.81Zm12.06-.17v-17h3.24v2.85h0a4,4,0,0,1,1.5-2.22,4.8,4.8,0,0,1,3.72-.68v3.17a4.05,4.05,0,0,0-1.48-.22,3.43,3.43,0,0,0-2.65,1.07,4.07,4.07,0,0,0-1,2.87v10.11Zm24.53-11.16H121a3.73,3.73,0,0,0-1.31-2.28,4.15,4.15,0,0,0-2.74-.88,4,4,0,0,0-3.3,1.6,7.91,7.91,0,0,0,0,8.52,4,4,0,0,0,3.31,1.56,4.4,4.4,0,0,0,2.71-.79,3.54,3.54,0,0,0,1.34-2.27h3.24a6.22,6.22,0,0,1-2.28,4.29,7.74,7.74,0,0,1-5,1.61,7.56,7.56,0,0,1-5.8-2.34,10.32,10.32,0,0,1,0-12.66,7.44,7.44,0,0,1,5.77-2.37,8.6,8.6,0,0,1,2.92.48,6.35,6.35,0,0,1,2.25,1.3,6.64,6.64,0,0,1,1.47,1.91,6.4,6.4,0,0,1,.67,2.32Zm2.65,11.16V100.71h3.35v9.44h.08c1-2,2.87-3,5.51-3a6.05,6.05,0,0,1,4.49,1.72,6.27,6.27,0,0,1,1.69,4.59v10.83h-3.37V114.07a4.11,4.11,0,0,0-1.06-3,3.91,3.91,0,0,0-2.92-1.08,4.25,4.25,0,0,0-3.18,1.25,4.56,4.56,0,0,0-1.21,3.28v9.71Zm42.08,0L167,122.13a9.75,9.75,0,0,1-3.24,1.85,11.59,11.59,0,0,1-3.88.66,8.46,8.46,0,0,1-5.55-1.75,5.71,5.71,0,0,1-2.11-4.6,5.84,5.84,0,0,1,1.06-3.46,9.18,9.18,0,0,1,3.26-2.69l.37-.2a4,4,0,0,1,.36-.18l.19-.09a13.56,13.56,0,0,1-2.16-2.8,5,5,0,0,1-.63-2.41,4.56,4.56,0,0,1,1.69-3.63,7,7,0,0,1,8.48,0,4.55,4.55,0,0,1,1.65,3.65,4.81,4.81,0,0,1-1.11,3.09,11.88,11.88,0,0,1-3.61,2.7l5.11,5.5a11.49,11.49,0,0,0,1-5.35v-.86h3v1A13.25,13.25,0,0,1,169,120l4,4.26ZM158.45,114a8,8,0,0,0-2.25,1.92,3.6,3.6,0,0,0-.68,2.16,3.5,3.5,0,0,0,1.29,2.82,5.11,5.11,0,0,0,3.39,1.08,7.59,7.59,0,0,0,2.73-.51,6,6,0,0,0,2.14-1.38l-5.92-6.46c-.19.09-.42.22-.7.37Zm1.59-3.48a9,9,0,0,0,2.62-1.83,3,3,0,0,0,.78-2,2.66,2.66,0,0,0-.79-2,3.1,3.1,0,0,0-4.09,0,2.66,2.66,0,0,0-.8,2,3.33,3.33,0,0,0,.51,1.73,12,12,0,0,0,1.77,2.11Zm44.08-3.18-4.67,17H196l-3.61-12.77h-.08l-3.58,12.77h-3.47l-4.69-17h3.38l3.15,13.42h.06l3.59-13.42H194l3.6,13.42h.06l3.16-13.42Zm7.74,14.42a4.67,4.67,0,0,0,3.15-1.08,3.5,3.5,0,0,0,1.27-2.76v-1.32l-4.13.27q-3.51.23-3.51,2.5a2.05,2.05,0,0,0,.87,1.74,3.83,3.83,0,0,0,2.35.65Zm-.91,2.7a6.11,6.11,0,0,1-4.14-1.38,4.59,4.59,0,0,1-1.58-3.64,4.12,4.12,0,0,1,1.66-3.48,8.79,8.79,0,0,1,4.81-1.47l4.58-.27v-1.31a2.7,2.7,0,0,0-.94-2.22,4.66,4.66,0,0,0-4.94-.12,2.69,2.69,0,0,0-1.16,1.76h-3.17a4.77,4.77,0,0,1,2-3.73,7.51,7.51,0,0,1,4.76-1.48,7.61,7.61,0,0,1,5,1.51,5,5,0,0,1,1.85,4v11.63h-3.24v-2.82h-.07a5.21,5.21,0,0,1-2.16,2.18,6.42,6.42,0,0,1-3.2.81ZM224,103.49h3.37v3.81h3.25V110H227.4v9.47a2.26,2.26,0,0,0,.51,1.63,2.1,2.1,0,0,0,1.57.53,8.42,8.42,0,0,0,1.15-.08v2.67a8.43,8.43,0,0,1-1.9.17,5.08,5.08,0,0,1-3.62-1,4.81,4.81,0,0,1-1.08-3.53V110h-2.34V107.3H224v-3.81Zm23.57,9.6h-3.23a3.71,3.71,0,0,0-1.3-2.28,4.19,4.19,0,0,0-2.74-.88,4,4,0,0,0-3.3,1.6,7.86,7.86,0,0,0,0,8.52,4,4,0,0,0,3.31,1.56,4.35,4.35,0,0,0,2.7-.79,3.59,3.59,0,0,0,1.35-2.27h3.23a6.18,6.18,0,0,1-2.28,4.29,7.71,7.71,0,0,1-5,1.61,7.55,7.55,0,0,1-5.8-2.34,10.3,10.3,0,0,1,0-12.66,7.46,7.46,0,0,1,5.78-2.37,8.64,8.64,0,0,1,2.92.48,6.53,6.53,0,0,1,2.25,1.3,6.64,6.64,0,0,1,1.47,1.91,6.2,6.2,0,0,1,.66,2.32Zm2.65,11.16V100.71h3.36v9.44h.08c1-2,2.86-3,5.5-3a6.06,6.06,0,0,1,4.5,1.72,6.27,6.27,0,0,1,1.68,4.59v10.83H262V114.07a4.07,4.07,0,0,0-1.07-3A3.89,3.89,0,0,0,258,110a4.23,4.23,0,0,0-3.18,1.25,4.52,4.52,0,0,0-1.21,3.28v9.71Zm40.27-17-6.1,17h-3.61l-6.11-17h3.57l4.32,13.61h.08L287,107.3Zm2.16,17v-17h3.38v17Zm3.1-19.94a2,2,0,0,1-2.81,0,2,2,0,0,1,0-2.77,2,2,0,0,1,2.81,0,1.94,1.94,0,0,1,0,2.77ZM306,124.42a6.41,6.41,0,0,1-5.17-2.37,11,11,0,0,1,0-12.55,6.81,6.81,0,0,1,8.35-1.58,5.25,5.25,0,0,1,2.14,2.19h.07v-9.4h3.37v23.54h-3.27v-2.87h-.07a5.39,5.39,0,0,1-2.16,2.25,6.64,6.64,0,0,1-3.26.79ZM306.9,110a4,4,0,0,0-3.3,1.57,7.72,7.72,0,0,0,0,8.41,4.24,4.24,0,0,0,6.6,0,6.61,6.61,0,0,0,1.25-4.19,6.55,6.55,0,0,0-1.26-4.18A4,4,0,0,0,306.9,110Zm18.54-.16a4.08,4.08,0,0,0-3,1.22,4.84,4.84,0,0,0-1.36,3.17h8.6a4.69,4.69,0,0,0-1.21-3.19,4,4,0,0,0-3-1.2Zm4.2,9.44h3.23a5.51,5.51,0,0,1-2.39,3.73,8.21,8.21,0,0,1-4.88,1.44,7.57,7.57,0,0,1-5.84-2.32,8.93,8.93,0,0,1-2.14-6.29,9.16,9.16,0,0,1,2.14-6.37,7.28,7.28,0,0,1,5.69-2.39,7.05,7.05,0,0,1,5.54,2.26,8.7,8.7,0,0,1,2.05,6.11v1.18H321v.2a5,5,0,0,0,1.26,3.54,4.41,4.41,0,0,0,3.36,1.33,4.89,4.89,0,0,0,2.56-.65,3.12,3.12,0,0,0,1.42-1.77Zm19.22,2.83a8.48,8.48,0,0,1-11.7,0,10.31,10.31,0,0,1,0-12.67,8.42,8.42,0,0,1,11.68,0,10.37,10.37,0,0,1,0,12.68Zm-9.21-2a4.44,4.44,0,0,0,6.73,0,8.35,8.35,0,0,0,0-8.66,4.42,4.42,0,0,0-6.73,0,8.26,8.26,0,0,0,0,8.64Zm13.8-8a4.38,4.38,0,0,1,1.83-3.63,7.62,7.62,0,0,1,4.75-1.4,7.31,7.31,0,0,1,4.6,1.42,4.6,4.6,0,0,1,1.88,3.63h-3.19a2.39,2.39,0,0,0-1-1.78,3.92,3.92,0,0,0-2.36-.66,4,4,0,0,0-2.32.62,1.88,1.88,0,0,0-.88,1.61c0,1,.88,1.75,2.64,2.18l2.81.67a7.89,7.89,0,0,1,3.62,1.65,3.86,3.86,0,0,1,1.06,2.9,4.38,4.38,0,0,1-1.95,3.69,8.26,8.26,0,0,1-5,1.43,7.9,7.9,0,0,1-4.83-1.39,4.93,4.93,0,0,1-2.06-3.71h3.34a2.65,2.65,0,0,0,1.16,1.86,4.55,4.55,0,0,0,2.57.65,4.47,4.47,0,0,0,2.5-.61,1.88,1.88,0,0,0,.93-1.64,1.53,1.53,0,0,0-.56-1.27,4.75,4.75,0,0,0-1.89-.82l-3-.75Q353.46,115.65,353.45,112.12Z"/><path id="Shape_27_copy_2" data-name="Shape 27 copy 2" class="cls-3" d="M115.48,78.78a10.37,10.37,0,0,1-5.07-1.33,9.68,9.68,0,0,1-5.09-8.52V12.85a9.69,9.69,0,0,1,5.09-8.52,10.35,10.35,0,0,1,10.17,0l12.75,6.34-3.84,6L117.18,10a3.44,3.44,0,0,0-3.39,0,3.21,3.21,0,0,0-1.7,2.84V68.93a3.21,3.21,0,0,0,1.7,2.84,3.42,3.42,0,0,0,3.39,0l50-28a3.23,3.23,0,0,0,1.31-4.37,3.16,3.16,0,0,0-1.31-1.3L155.85,31l3.84-5.49,10.86,6.87a9.69,9.69,0,0,1,0,17l-50,28A10.3,10.3,0,0,1,115.48,78.78Z"/></g></g></svg>