<?xml version="1.0" encoding="utf-8"?>
<!-- Generator: Adobe Illustrator 22.0.0, SVG Export Plug-In . SVG Version: 6.00 Build 0)  -->
<svg version="1.1" id="Layer_1" xmlns="http://www.w3.org/2000/svg" xmlns:xlink="http://www.w3.org/1999/xlink" x="0px" y="0px"
	 viewBox="0 0 417.7 124.6" style="enable-background:new 0 0 417.7 124.6;" xml:space="preserve">
<style type="text/css">
	.st0{fill:#FFFFFF;}
	.st1{fill:#FFC600;stroke:#FFC600;stroke-width:6;stroke-miterlimit:10;}
</style>
<title>Asset 16</title>
<g>
	<path class="st0" d="M321.3,36.2h-50.5v12.9l32.4,0.1c-1.9,4.5-7.4,8.4-11.6,10.4c-16.2,7.7-41.4,3.1-46.1-13.4
		c-1.7-5.9-0.4-12.3,3.3-17.2c7.1-9.3,21.8-12.2,33.4-9.7c4.1,0.9,7.9,2.7,11.2,5.2c1.1,0.9,2.2,2,3.1,2.6c2.7-0.9,5.5-1.9,8.3-2.9
		c2.6-0.9,6.3-1.7,8.3-3.1C297.7,0.1,250.6-1,233.8,23.8c-5.9,9.1-6.7,20.6-2.1,30.4c7.5,15.8,29.2,25,53,21.4
		c9.7-1.3,18.8-5.3,26.3-11.6C318.7,57.5,321.9,46.8,321.3,36.2z"/>
	<path class="st0" d="M8.7,52.6C8.1,53.1,0.7,62,0,63.4c4.2,4,17,9,23.4,10.5c10.4,2.2,21,2.7,31.6,1.4c9-1.1,17.6-3.8,23.4-10.4
		s5.4-19.6-1.3-24.7s-16.2-6.6-26.4-7.5c-7.3-0.7-25.8,0.1-29.6-4.4s3.2-7.3,6.9-8.2c11.2-2.6,26.1-1.1,36.9,3.5
		c1.6,0.7,4.6,2.5,6,2.7l6.9-7.9c0.9-1.1,1.6-1.4,2.2-2.9c-3.7-1.2-8.2-6.3-25.2-8.7C44.7,5.2,33,5.3,23.4,7.5
		C14.1,9.6,6.5,14.1,4,21.9c-3.1,9.9,2.4,17.5,11.7,20.8c20.1,7.3,48.2,0.8,49.4,9.9c1.4,10.7-22.2,10.8-31.5,9.3
		c-6.7-1.1-13.1-3.2-19.1-6.3C12.9,54.8,10.1,53.1,8.7,52.6z"/>
	<path class="st0" d="M417.4,7.3h-16.1c-0.3,2.3-0.1,37-0.1,40.1c0,7-2.5,10.2-7.4,12.6c-8.9,4.4-24.7,4.4-33.7,0.1
		c-2.2-1-4.1-2.6-5.6-4.5c-1.9-2.6-1.9-4.6-1.9-8.2c0-3.2,0.2-37.9-0.1-40.1h-16.1c-0.3,2.5-0.1,22.7-0.1,27.1
		c0,7.6-1.1,19.4,1.9,25.6c10.8,21.8,65.9,21.8,77.1,0.2c3.1-6.1,2-17.9,2-25.5C417.5,30.5,417.8,9.7,417.4,7.3z"/>
	<polygon class="st0" points="210.3,74.3 210.3,7.4 194.1,7.6 194.1,74.3 	"/>
	<path class="st0" d="M49.1,112.1c0-1.4,0.7-2.8,1.8-3.6c1.4-1,3.1-1.5,4.8-1.4c1.6-0.1,3.3,0.4,4.6,1.4c1.2,0.8,1.9,2.2,1.9,3.6H59
		c-0.1-0.7-0.4-1.4-1-1.8c-0.7-0.5-1.5-0.7-2.4-0.7c-0.8,0-1.6,0.2-2.3,0.6c-0.5,0.4-0.9,1-0.9,1.6c0,1,0.9,1.8,2.6,2.2l2.8,0.7
		c1.3,0.2,2.6,0.8,3.6,1.7c0.7,0.8,1.1,1.8,1.1,2.9c0,1.5-0.7,2.9-2,3.7c-1.5,1-3.2,1.5-5,1.4c-1.7,0.1-3.4-0.4-4.8-1.4
		c-1.2-0.9-2-2.2-2.1-3.7H52c0.1,0.8,0.5,1.4,1.2,1.9c0.8,0.5,1.7,0.7,2.6,0.7c0.9,0,1.7-0.2,2.5-0.6c0.6-0.3,0.9-1,0.9-1.6
		c0-0.5-0.2-1-0.5-1.3c-0.6-0.4-1.2-0.7-1.9-0.8l-3-0.8C50.7,116,49.1,114.5,49.1,112.1L49.1,112.1z M72.3,109.8
		c-1.1,0-2.2,0.4-3,1.2c-0.8,0.9-1.3,2-1.3,3.2h8.6c0-1.2-0.4-2.4-1.2-3.2C74.5,110.2,73.4,109.8,72.3,109.8L72.3,109.8z
		 M76.5,119.3h3.2c-0.2,1.5-1.1,2.9-2.4,3.7c-1.4,1-3.1,1.5-4.9,1.4c-2.2,0.1-4.3-0.7-5.8-2.3c-1.5-1.7-2.3-4-2.2-6.3
		c-0.1-2.3,0.6-4.6,2.1-6.4c1.5-1.6,3.5-2.5,5.7-2.4c2.1-0.1,4.1,0.7,5.5,2.3c1.4,1.7,2.1,3.9,2,6.1v1.2h-12v0.2
		c-0.1,1.3,0.4,2.6,1.3,3.5c0.9,0.9,2.1,1.4,3.3,1.3c0.9,0,1.8-0.2,2.6-0.7C75.7,120.6,76.2,120,76.5,119.3L76.5,119.3z M88.5,121.7
		c1.1,0,2.3-0.3,3.1-1.1c0.8-0.7,1.3-1.7,1.3-2.8v-1.3l-4.1,0.3c-2.3,0.2-3.5,1-3.5,2.5c0,0.7,0.3,1.3,0.9,1.7
		C86.9,121.5,87.7,121.8,88.5,121.7z M87.6,124.4c-1.5,0.1-3-0.5-4.1-1.4c-1.1-0.9-1.6-2.2-1.6-3.6c-0.1-1.4,0.6-2.7,1.7-3.5
		c1.4-0.9,3.1-1.5,4.8-1.5l4.6-0.3v-1.3c0.1-0.8-0.3-1.7-0.9-2.2c-1.5-1-3.4-1-4.9-0.1c-0.6,0.4-1,1-1.2,1.8h-3.2
		c0-1.5,0.8-2.9,2-3.7c1.4-1,3-1.5,4.8-1.5c1.8-0.1,3.6,0.4,5,1.5c1.2,1,1.9,2.5,1.8,4v11.6h-3.3v-2.8H93c-0.5,0.9-1.2,1.7-2.2,2.2
		C89.9,124.1,88.8,124.4,87.6,124.4L87.6,124.4z M99.7,124.3v-17h3.2v2.8l0,0c0.2-0.9,0.8-1.7,1.5-2.2c1.1-0.7,2.4-1,3.7-0.7v3.2
		c-0.5-0.2-1-0.2-1.5-0.2c-1,0-2,0.3-2.7,1.1c-0.7,0.8-1,1.8-1,2.9v10.1L99.7,124.3z M124.2,113.1H121c-0.1-0.9-0.6-1.7-1.3-2.3
		c-0.8-0.6-1.8-0.9-2.7-0.9c-1.3,0-2.5,0.6-3.3,1.6c-1.7,2.6-1.7,5.9,0,8.5c0.8,1,2,1.6,3.3,1.6c1,0,1.9-0.2,2.7-0.8
		c0.7-0.6,1.2-1.4,1.3-2.3h3.2c-0.1,1.7-1,3.2-2.3,4.3c-1.4,1.1-3.2,1.7-5,1.6c-2.2,0.1-4.3-0.8-5.8-2.3c-2.9-3.7-2.9-8.9,0-12.7
		c1.5-1.6,3.6-2.5,5.8-2.4c1,0,2,0.2,2.9,0.5c0.8,0.3,1.6,0.7,2.2,1.3c0.6,0.5,1.1,1.2,1.5,1.9C123.9,111.5,124.2,112.3,124.2,113.1
		L124.2,113.1z M126.8,124.3v-23.5h3.4v9.4h0.1c1-2,2.9-3,5.5-3c1.7-0.1,3.3,0.6,4.5,1.7c1.2,1.2,1.8,2.9,1.7,4.6v10.8h-3.4v-10.2
		c0.1-1.1-0.3-2.2-1.1-3c-0.8-0.7-1.8-1.1-2.9-1.1c-1.2,0-2.3,0.4-3.2,1.2c-0.8,0.9-1.3,2.1-1.2,3.3v9.7L126.8,124.3z M168.9,124.3
		l-1.9-2.1c-1,0.8-2.1,1.4-3.2,1.8c-1.2,0.4-2.6,0.7-3.9,0.7c-2,0.1-4-0.5-5.6-1.8c-1.4-1.1-2.2-2.8-2.1-4.6c0-1.2,0.3-2.4,1.1-3.5
		c0.9-1.1,2-2.1,3.3-2.7l0.4-0.2c0.1-0.1,0.2-0.1,0.4-0.2l0.2-0.1c-0.8-0.8-1.6-1.8-2.2-2.8c-0.4-0.7-0.6-1.6-0.6-2.4
		c0-1.4,0.6-2.7,1.7-3.6c2.5-1.9,6-1.9,8.5,0c1.1,0.9,1.7,2.2,1.6,3.7c0,1.1-0.4,2.2-1.1,3.1c-1,1.1-2.2,2-3.6,2.7l5.1,5.5
		c0.8-1.7,1.1-3.5,1-5.3v-0.9h3v1c0.1,2.6-0.5,5.2-1.9,7.4l4,4.3L168.9,124.3z M158.4,114c-0.9,0.5-1.6,1.1-2.2,1.9
		c-0.5,0.6-0.7,1.4-0.7,2.2c0,1.1,0.4,2.1,1.3,2.8c1,0.8,2.2,1.1,3.4,1.1c0.9,0,1.9-0.2,2.7-0.5c0.8-0.3,1.5-0.8,2.1-1.4l-5.9-6.5
		C159,113.7,158.7,113.9,158.4,114z M160,110.5c1-0.4,1.9-1.1,2.6-1.8c0.5-0.5,0.8-1.3,0.8-2c0-0.7-0.3-1.5-0.8-2
		c-1.2-1-2.9-1-4.1,0c-0.5,0.5-0.8,1.3-0.8,2c0,0.6,0.2,1.2,0.5,1.7C158.8,109.2,159.4,109.9,160,110.5L160,110.5z M204.1,107.3
		l-4.7,17H196l-3.6-12.8h-0.1l-3.6,12.8h-3.5l-4.7-17h3.4l3.1,13.4h0.1l3.6-13.4h3.3l3.6,13.4h0.1l3.2-13.4H204.1z M211.9,121.8
		c1.1,0,2.3-0.3,3.1-1.1c0.8-0.7,1.3-1.7,1.3-2.8v-1.3l-4.1,0.3c-2.3,0.2-3.5,1-3.5,2.5c0,0.7,0.3,1.3,0.9,1.7
		C210.2,121.6,211,121.8,211.9,121.8z M210.9,124.5c-1.5,0.1-3-0.4-4.1-1.4c-1.1-0.9-1.6-2.2-1.6-3.6c-0.1-1.4,0.6-2.7,1.7-3.5
		c1.4-0.9,3.1-1.5,4.8-1.5l4.6-0.3v-1.3c0.1-0.8-0.3-1.7-0.9-2.2c-1.5-1-3.4-1-4.9-0.1c-0.6,0.4-1,1-1.2,1.8h-3.2
		c0-1.5,0.8-2.9,2-3.7c1.4-1,3.1-1.5,4.8-1.5c1.8-0.1,3.6,0.4,5,1.5c1.2,1,1.9,2.5,1.9,4v11.6h-3.2v-2.8h-0.1
		c-0.5,0.9-1.2,1.7-2.2,2.2C213.2,124.2,212.1,124.4,210.9,124.5L210.9,124.5z M224,103.5h3.4v3.8h3.2v2.7h-3.2v9.5
		c0,0.6,0.1,1.2,0.5,1.6c0.4,0.4,1,0.6,1.6,0.5c0.4,0,0.8,0,1.1-0.1v2.7c-0.6,0.1-1.3,0.2-1.9,0.2c-1.3,0.1-2.6-0.2-3.6-1
		c-0.8-1-1.2-2.3-1.1-3.5V110h-2.3v-2.7h2.3C224,107.3,224,103.5,224,103.5z M247.6,113.1h-3.2c-0.1-0.9-0.6-1.7-1.3-2.3
		c-0.8-0.6-1.8-0.9-2.7-0.9c-1.3,0-2.5,0.6-3.3,1.6c-1.7,2.6-1.7,5.9,0,8.5c0.8,1,2,1.6,3.3,1.6c1,0,1.9-0.2,2.7-0.8
		c0.7-0.6,1.2-1.4,1.4-2.3h3.2c-0.1,1.7-1,3.2-2.3,4.3c-1.4,1.1-3.2,1.7-5,1.6c-2.2,0.1-4.3-0.8-5.8-2.3c-2.9-3.7-2.9-8.9,0-12.7
		c1.5-1.6,3.6-2.5,5.8-2.4c1,0,2,0.2,2.9,0.5c0.8,0.3,1.6,0.7,2.2,1.3c0.6,0.5,1.1,1.2,1.5,1.9C247.3,111.5,247.5,112.3,247.6,113.1
		L247.6,113.1z M250.2,124.2v-23.5h3.4v9.4h0.1c1-2,2.9-3,5.5-3c1.7-0.1,3.3,0.5,4.5,1.7c1.2,1.2,1.8,2.9,1.7,4.6v10.8H262v-10.2
		c0.1-1.1-0.3-2.2-1.1-3c-0.8-0.7-1.8-1.1-2.9-1.1c-1.2,0-2.3,0.4-3.2,1.2c-0.8,0.9-1.3,2.1-1.2,3.3v9.7L250.2,124.2z M290.5,107.2
		l-6.1,17h-3.6l-6.1-17h3.6l4.3,13.6h0.1l4.4-13.6L290.5,107.2z M292.6,124.2v-17h3.4v17H292.6z M295.8,104.3c-0.8,0.8-2,0.8-2.8,0
		c-0.7-0.8-0.7-2,0-2.8c0.8-0.8,2-0.8,2.8,0C296.5,102.3,296.5,103.5,295.8,104.3C295.8,104.3,295.8,104.3,295.8,104.3z M306,124.4
		c-2,0.1-3.9-0.8-5.2-2.4c-2.6-3.8-2.6-8.8,0-12.6c2.1-2.4,5.5-3.1,8.4-1.6c0.9,0.5,1.7,1.3,2.1,2.2h0.1v-9.4h3.4v23.5h-3.3v-2.9
		h-0.1c-0.5,0.9-1.2,1.7-2.2,2.2C308.3,124.2,307.1,124.4,306,124.4z M306.9,110c-1.3,0-2.5,0.5-3.3,1.6c-1.7,2.6-1.7,5.9,0,8.4
		c1.5,1.8,4.1,2.1,6,0.6c0.2-0.2,0.4-0.4,0.6-0.6c0.9-1.2,1.3-2.7,1.2-4.2c0.1-1.5-0.4-3-1.3-4.2C309.4,110.6,308.2,110,306.9,110z
		 M325.4,109.8c-1.1,0-2.2,0.4-3,1.2c-0.8,0.9-1.3,2-1.4,3.2h8.6c0-1.2-0.4-2.3-1.2-3.2C327.7,110.2,326.6,109.8,325.4,109.8
		L325.4,109.8z M329.6,119.3h3.2c-0.2,1.5-1.1,2.9-2.4,3.7c-1.4,1-3.1,1.5-4.9,1.4c-2.2,0.1-4.3-0.7-5.8-2.3c-1.5-1.7-2.3-4-2.1-6.3
		c-0.1-2.3,0.6-4.6,2.1-6.4c1.4-1.6,3.5-2.5,5.7-2.4c2.1-0.1,4.1,0.7,5.5,2.3c1.4,1.7,2.2,3.9,2,6.1v1.2h-12v0.2
		c-0.1,1.3,0.4,2.6,1.3,3.5c0.9,0.9,2.1,1.4,3.4,1.3c0.9,0,1.8-0.2,2.6-0.7C328.9,120.7,329.4,120,329.6,119.3L329.6,119.3z
		 M348.9,122.1c-3.3,3.1-8.4,3.1-11.7,0c-2.9-3.7-2.9-8.9,0-12.7c3.3-3.1,8.4-3.1,11.7,0C351.7,113.2,351.7,118.4,348.9,122.1
		L348.9,122.1z M339.7,120.1c1.6,1.9,4.4,2.1,6.3,0.5c0.2-0.1,0.3-0.3,0.5-0.5c1.6-2.7,1.6-6,0-8.7c-1.6-1.9-4.4-2.1-6.2-0.5
		c-0.2,0.2-0.3,0.3-0.5,0.5C338,114.1,338,117.4,339.7,120.1L339.7,120.1z M353.5,112.1c0-1.4,0.7-2.8,1.8-3.6
		c1.4-1,3.1-1.5,4.8-1.4c1.6-0.1,3.3,0.4,4.6,1.4c1.2,0.8,1.9,2.2,1.9,3.6h-3.2c-0.1-0.7-0.4-1.4-1-1.8c-0.7-0.5-1.5-0.7-2.4-0.7
		c-0.8,0-1.6,0.2-2.3,0.6c-0.6,0.3-0.9,1-0.9,1.6c0,1,0.9,1.8,2.6,2.2l2.8,0.7c1.3,0.2,2.6,0.8,3.6,1.7c0.7,0.8,1.1,1.8,1.1,2.9
		c0,1.5-0.7,2.9-2,3.7c-1.5,1-3.2,1.5-5,1.4c-1.7,0.1-3.4-0.4-4.8-1.4c-1.2-0.9-2-2.2-2.1-3.7h3.3c0.1,0.8,0.5,1.4,1.2,1.9
		c0.8,0.5,1.7,0.7,2.6,0.7c0.9,0,1.7-0.2,2.5-0.6c0.6-0.3,0.9-1,0.9-1.6c0-0.5-0.2-1-0.6-1.3c-0.6-0.4-1.2-0.7-1.9-0.8l-3-0.8
		C355,116,353.5,114.5,353.5,112.1L353.5,112.1z"/>
	<path id="Shape_27_copy_2" class="st1" d="M115.5,78.8c-1.8,0-3.5-0.5-5.1-1.3c-3.1-1.7-5.1-5-5.1-8.5V12.9c0-3.6,2-6.8,5.1-8.5
		c3.2-1.8,7-1.8,10.2,0l12.8,6.3l-3.8,6L117.2,10c-1.1-0.6-2.3-0.6-3.4,0c-1,0.6-1.7,1.7-1.7,2.8v56.1c0,1.2,0.7,2.3,1.7,2.8
		c1.1,0.6,2.3,0.6,3.4,0l50-28c1.6-0.8,2.2-2.8,1.3-4.4c-0.3-0.6-0.8-1-1.3-1.3L155.9,31l3.8-5.5l10.9,6.9c4.7,2.6,6.4,8.5,3.8,13.2
		c-0.9,1.6-2.2,3-3.8,3.8l-50,28C119,78.3,117.3,78.8,115.5,78.8z"/>
</g>
</svg>
